# Blender 3.4.1
# www.blender.org
o flat_riveted_panel_low
v -1.000000 -1.000000 0.100000
v -1.000000 1.000000 0.100000
v -1.000000 -1.000000 -0.100000
v -1.000000 1.000000 -0.100000
v 1.000000 -1.000000 0.100000
v 1.000000 1.000000 0.100000
v 1.000000 -1.000000 -0.100000
v 1.000000 1.000000 -0.100000
vn -1.0000 -0.0000 -0.0000
vn -0.0000 -0.0000 -1.0000
vn 1.0000 -0.0000 -0.0000
vn -0.0000 -0.0000 1.0000
vn -0.0000 -1.0000 -0.0000
vn -0.0000 1.0000 -0.0000
vt 0.999023 0.001039
vt 0.995077 0.995077
vt 0.999023 0.016761
vt 0.998961 0.001039
vt 0.995077 0.000977
vt 0.998961 0.004923
vt 0.999023 0.008931
vt 0.999023 0.016823
vt 0.999023 0.000977
vt 0.998961 0.000977
vt 0.998961 0.008931
vt 0.998961 0.004985
vt 0.000977 0.995077
vt 0.998961 0.012877
vt 0.998961 0.016761
vt 0.999023 0.012877
vt 0.000977 0.000977
vt 0.999023 0.004923
vt 0.998961 0.012815
vt 0.999023 0.008869
vt 0.998961 0.016823
vt 0.999023 0.004985
vt 0.998961 0.008869
vt 0.999023 0.012815
s 0
f 2/4/1 3/9/1 1/1/1
f 4/11/2 7/20/2 3/7/2
f 8/24/3 5/14/3 7/19/3
f 6/17/4 1/2/4 5/13/4
f 7/21/5 1/3/5 3/8/5
f 4/12/6 6/18/6 8/22/6
f 2/4/1 4/10/1 3/9/1
f 4/11/2 8/23/2 7/20/2
f 8/24/3 6/16/3 5/14/3
f 6/17/4 2/5/4 1/2/4
f 7/21/5 5/15/5 1/3/5
f 4/12/6 2/6/6 6/18/6
