v -1 1 0.1
v -1 -1 0.1
v -1 -1 -0.1
v -1 1 -0.1
v 1 -1 -0.1
v 1 1 -0.1
v 1 -1 0.1
v 1 1 0.1
vn -1 0 -0
vn 0 0 -1
vn 1 0 -0
vn -0 -0 1
vn 0 -1 -0
vn 0 1 -0
vt 1 1
vt 1 0
vt 0.9 0
vt 0 0
vt 0.1 1
vt 0.1 0
vt 0 0.9
vt 1 0.9
vt 0 0.1
vt 1 0.1
vt 0.9 1
vt 0 1
f 3/3/1 2/2/1 1/1/1
f 5/4/2 3/4/2 4/4/2
f 7/4/3 5/6/3 6/5/3
f 2/4/4 7/2/4 8/1/4
f 2/1/5 3/8/5 5/7/5
f 8/2/6 6/10/6 4/9/6
f 4/11/1 3/3/1 1/1/1
f 6/4/2 5/4/2 4/4/2
f 8/12/3 7/4/3 6/5/3
f 1/12/4 2/4/4 8/1/4
f 7/12/5 2/1/5 5/7/5
f 1/4/6 8/2/6 4/9/6
